<svg version="1.1" id="Layer_1" xmlns="http://www.w3.org/2000/svg" xmlns:xlink="http://www.w3.org/1999/xlink" x="0px" y="0px"
	 width="100%" viewBox="0 0 1254 1254" enable-background="new 0 0 1254 1254" xml:space="preserve">
<path fill="#000000" opacity="1.000000" stroke="none" 
	d="
M792.000000,1255.000000 
	C528.000000,1255.000000 264.500000,1255.000000 1.000000,1255.000000 
	C1.000000,837.000000 1.000000,419.000000 1.000000,1.000000 
	C419.000000,1.000000 837.000000,1.000000 1255.000000,1.000000 
	C1255.000000,419.000000 1255.000000,837.000000 1255.000000,1255.000000 
	C1100.833374,1255.000000 946.666687,1255.000000 792.000000,1255.000000 
M406.903534,670.090332 
	C407.888153,669.040833 408.872803,667.991333 409.951996,666.952026 
	C409.951996,666.952026 409.941895,666.857422 410.530884,666.559631 
	C415.827332,661.201599 421.123779,655.843567 426.417480,650.399109 
	C426.417480,650.399109 426.501801,650.418457 427.081696,650.140259 
	C433.092163,644.108215 439.102631,638.076172 445.705841,631.774658 
	C447.480286,629.874146 449.254761,627.973694 451.632202,625.814148 
	C453.117279,624.224304 454.602356,622.634460 456.543549,620.887512 
	C456.833252,620.698303 456.997437,620.431763 457.628815,619.832825 
	C458.785675,618.578308 459.942535,617.323730 461.013885,616.012268 
	C461.013885,616.012268 461.068604,616.099121 461.677216,615.850830 
	C463.173798,614.256287 464.670380,612.661804 466.753571,610.798645 
	C468.537292,608.951538 470.320984,607.104431 472.770660,604.970276 
	C477.865265,598.205444 476.480377,589.218079 469.101196,586.710449 
	C398.871979,586.689636 328.642761,586.661926 258.413544,586.660767 
	C252.599335,586.660645 246.785141,586.839844 240.205368,586.823975 
	C237.627701,588.191833 234.571915,589.064270 232.553543,591.011780 
	C222.848267,600.376404 213.371017,609.980042 203.909958,619.594421 
	C187.216003,636.558899 170.592499,653.592712 153.312683,670.906677 
	C149.468903,674.847412 145.625107,678.788147 140.884552,682.892395 
	C130.446030,682.892395 120.007523,682.892395 109.103722,682.892395 
	C109.103722,685.182617 109.103683,686.805542 109.103722,688.428406 
	C109.105194,755.385071 109.109070,822.341736 109.106453,889.298401 
	C109.105827,905.454590 109.106308,921.610779 109.055199,937.766846 
	C109.042801,941.682556 109.641212,945.928650 113.932114,946.507690 
	C120.862167,947.442810 127.756737,948.337524 133.751678,941.986450 
	C153.523758,921.040283 173.601181,900.370422 194.010468,880.045410 
	C199.361511,874.716370 201.267899,869.263123 201.246262,861.954102 
	C201.069870,802.326843 201.181870,742.698853 202.116440,683.130432 
	C263.391144,683.083679 324.665894,682.996887 385.940491,683.051880 
	C392.083893,683.057373 397.017639,681.331299 400.979370,675.991699 
	C401.379761,675.507874 401.780121,675.024048 402.772644,674.209412 
	C403.957733,672.922424 405.142822,671.635437 405.976227,670.087830 
	C405.976227,670.087830 406.335968,670.334229 406.903534,670.090332 
M1074.090332,520.087830 
	C1074.373657,520.476501 1074.656982,520.865112 1075.728638,521.509521 
	C1115.863892,521.577087 1155.999023,521.650269 1196.134277,521.697937 
	C1198.456177,521.700684 1200.778320,521.496521 1203.669556,521.675659 
	C1204.529541,521.513306 1205.389526,521.350891 1206.249512,521.188538 
	C1205.980225,520.697021 1205.710938,520.205505 1205.416626,519.688110 
	C1205.416626,519.688110 1205.390137,519.663879 1205.240479,518.978088 
	C1183.825195,484.849670 1162.409912,450.721283 1140.620239,415.996307 
	C1138.730225,418.790192 1137.491943,420.539337 1136.336426,422.341553 
	C1124.394043,440.967438 1112.409424,459.566620 1100.551147,478.245880 
	C1091.823242,491.994080 1083.265381,505.850189 1074.630737,519.692139 
	C1074.630737,519.692139 1074.603394,519.710449 1074.090332,520.087830 
M542.945496,939.769165 
	C545.405396,941.145264 547.805603,943.563965 550.336060,943.708801 
	C559.139465,944.212585 568.010925,944.299316 576.807495,943.753723 
	C580.137695,943.547180 584.112122,941.988403 586.470642,939.689514 
	C607.946777,918.755493 629.023682,897.412109 650.483704,876.461365 
	C655.187622,871.869080 657.044128,866.910400 657.042236,860.518738 
	C657.008606,747.208862 657.089722,633.898926 657.128479,520.589050 
	C657.150208,457.102112 657.144043,393.615143 657.138916,330.128204 
	C657.138306,322.323395 654.805542,320.022064 647.028931,320.015961 
	C637.197815,320.008240 627.354858,319.730957 617.542175,320.153778 
	C614.298889,320.293518 610.282227,321.362183 608.066650,323.503693 
	C589.506470,341.443085 571.283752,359.731445 552.328125,378.140503 
	C544.665039,383.665649 542.084473,390.969604 542.093628,400.527191 
	C542.265259,578.594177 542.147766,756.661499 542.124207,934.728699 
	C542.124023,936.169739 542.578796,937.610718 542.945496,939.769165 
M974.485962,798.499634 
	C974.485962,814.608826 974.485962,830.718079 974.485962,847.313721 
	C972.290100,847.313721 970.665771,847.314148 969.041443,847.313660 
	C911.542114,847.296570 854.042725,847.324463 796.543640,847.197083 
	C790.311157,847.183289 785.400635,849.020508 780.973999,853.527283 
	C759.019409,875.879272 737.081665,898.256653 714.662109,920.137451 
	C708.453003,926.197327 705.785767,932.442749 706.690613,940.904663 
	C707.420105,947.725891 709.753601,950.522949 716.713440,950.525513 
	C799.713074,950.556091 882.712769,950.544434 965.712402,950.565125 
	C970.468994,950.566345 974.348083,948.942322 977.757874,945.526001 
	C1006.366760,916.862122 1035.001099,888.222900 1063.773926,859.723877 
	C1068.266724,855.273865 1070.094604,850.312256 1070.083496,844.125793 
	C1070.025635,811.959534 1070.119629,779.792908 1070.196411,747.626465 
	C1070.249634,725.293518 1070.349976,702.960693 1070.453857,680.627930 
	C1070.477173,675.627014 1069.356567,671.200012 1065.661865,667.444580 
	C1039.133179,640.480042 1012.590515,613.527588 986.304321,586.327820 
	C981.484375,581.340332 976.317566,579.329651 969.524658,579.356140 
	C919.858826,579.549744 870.192139,579.530823 820.525757,579.565369 
	C810.352661,579.572449 808.243469,577.450134 808.246338,567.177673 
	C808.259155,521.511414 808.291504,475.845184 808.316650,430.178925 
	C808.317627,428.444702 808.316772,426.710480 808.316772,424.726044 
	C810.783081,424.726044 812.430969,424.726624 814.078918,424.725983 
	C872.744873,424.702515 931.411255,424.574219 990.076416,424.781403 
	C997.831726,424.808777 1003.639343,422.618835 1009.027100,416.944733 
	C1025.549438,399.543915 1042.582275,382.629517 1059.275024,365.388733 
	C1073.057617,351.153625 1071.937134,356.489227 1071.918457,334.035217 
	C1071.910767,324.711517 1067.411743,320.250793 1058.112671,320.221436 
	C1045.279541,320.180939 1032.446167,320.259277 1019.612976,320.251404 
	C954.113342,320.211304 888.613708,320.171631 823.114136,320.087555 
	C818.423584,320.081543 814.326782,321.030396 810.899658,324.593384 
	C781.325684,355.339294 751.738953,386.073547 722.000854,416.660370 
	C718.108948,420.663422 716.180908,425.007965 716.180969,430.446686 
	C716.182068,481.446442 716.172852,532.446228 716.138672,583.445984 
	C716.135254,588.549988 717.889648,592.714050 721.516479,596.408997 
	C747.546082,622.927185 773.564880,649.457703 799.355652,676.207336 
	C804.039062,681.064941 809.134827,683.024597 815.712769,683.008301 
	C864.878784,682.886292 914.045166,682.931274 963.211487,682.931885 
	C972.412354,682.932007 974.410645,684.878296 974.420959,694.000122 
	C974.459900,728.499939 974.468384,762.999756 974.485962,798.499634 
M109.127357,468.499969 
	C109.127357,537.085571 109.127357,605.671143 109.127357,675.144653 
	C110.356995,674.044006 110.944702,673.580078 111.460983,673.046875 
	C139.283051,644.316406 167.005386,615.488159 195.011459,586.938171 
	C199.483871,582.378906 201.241989,577.677673 201.221756,571.441650 
	C201.069748,524.610779 201.149216,477.779144 201.156219,430.947723 
	C201.156509,428.994873 201.156250,427.042023 201.156250,424.642334 
	C204.318405,424.642334 206.958069,424.642090 209.597717,424.642303 
	C280.094391,424.648132 350.591125,424.632324 421.087738,424.699707 
	C426.934357,424.705292 431.590454,422.852844 435.761322,418.624084 
	C459.984741,394.064697 484.264893,369.558807 508.781616,345.293213 
	C513.461548,340.661194 515.564697,335.831787 515.133179,329.346863 
	C514.650269,322.089844 512.290588,319.393890 505.045227,319.391663 
	C410.549225,319.362518 316.053253,319.363037 221.557266,319.309570 
	C215.896301,319.306366 211.383499,321.206024 207.314850,325.266937 
	C176.646942,355.876617 145.901764,386.409668 115.022156,416.805542 
	C110.876266,420.886505 109.035255,425.363464 109.078033,431.001801 
	C109.170341,443.167267 109.119347,455.333832 109.127357,468.499969 
z"/>
<path fill="#FCFCFC" opacity="1.000000" stroke="none" 
	d="
M974.487122,797.999634 
	C974.468384,762.999756 974.459900,728.499939 974.420959,694.000122 
	C974.410645,684.878296 972.412354,682.932007 963.211487,682.931885 
	C914.045166,682.931274 864.878784,682.886292 815.712769,683.008301 
	C809.134827,683.024597 804.039062,681.064941 799.355652,676.207336 
	C773.564880,649.457703 747.546082,622.927185 721.516479,596.408997 
	C717.889648,592.714050 716.135254,588.549988 716.138672,583.445984 
	C716.172852,532.446228 716.182068,481.446442 716.180969,430.446686 
	C716.180908,425.007965 718.108948,420.663422 722.000854,416.660370 
	C751.738953,386.073547 781.325684,355.339294 810.899658,324.593384 
	C814.326782,321.030396 818.423584,320.081543 823.114136,320.087555 
	C888.613708,320.171631 954.113342,320.211304 1019.612976,320.251404 
	C1032.446167,320.259277 1045.279541,320.180939 1058.112671,320.221436 
	C1067.411743,320.250793 1071.910767,324.711517 1071.918457,334.035217 
	C1071.937134,356.489227 1073.057617,351.153625 1059.275024,365.388733 
	C1042.582275,382.629517 1025.549438,399.543915 1009.027100,416.944733 
	C1003.639343,422.618835 997.831726,424.808777 990.076416,424.781403 
	C931.411255,424.574219 872.744873,424.702515 814.078918,424.725983 
	C812.430969,424.726624 810.783081,424.726044 808.316772,424.726044 
	C808.316772,426.710480 808.317627,428.444702 808.316650,430.178925 
	C808.291504,475.845184 808.259155,521.511414 808.246338,567.177673 
	C808.243469,577.450134 810.352661,579.572449 820.525757,579.565369 
	C870.192139,579.530823 919.858826,579.549744 969.524658,579.356140 
	C976.317566,579.329651 981.484375,581.340332 986.304321,586.327820 
	C1012.590515,613.527588 1039.133179,640.480042 1065.661865,667.444580 
	C1069.356567,671.200012 1070.477173,675.627014 1070.453857,680.627930 
	C1070.349976,702.960693 1070.249634,725.293518 1070.196411,747.626465 
	C1070.119629,779.792908 1070.025635,811.959534 1070.083496,844.125793 
	C1070.094604,850.312256 1068.266724,855.273865 1063.773926,859.723877 
	C1035.001099,888.222900 1006.366760,916.862122 977.757874,945.526001 
	C974.348083,948.942322 970.468994,950.566345 965.712402,950.565125 
	C882.712769,950.544434 799.713074,950.556091 716.713440,950.525513 
	C709.753601,950.522949 707.420105,947.725891 706.690613,940.904663 
	C705.785767,932.442749 708.453003,926.197327 714.662109,920.137451 
	C737.081665,898.256653 759.019409,875.879272 780.973999,853.527283 
	C785.400635,849.020508 790.311157,847.183289 796.543640,847.197083 
	C854.042725,847.324463 911.542114,847.296570 969.041443,847.313660 
	C970.665771,847.314148 972.290100,847.313721 974.485962,847.313721 
	C974.485962,830.718079 974.485962,814.608826 974.487122,797.999634 
z"/>
<path fill="#7DC495" opacity="1.000000" stroke="none" 
	d="
M552.959290,377.914612 
	C571.283752,359.731445 589.506470,341.443085 608.066650,323.503693 
	C610.282227,321.362183 614.298889,320.293518 617.542175,320.153778 
	C627.354858,319.730957 637.197815,320.008240 647.028931,320.015961 
	C654.805542,320.022064 657.138306,322.323395 657.138916,330.128204 
	C657.144043,393.615143 657.150208,457.102112 657.128479,520.589050 
	C657.089722,633.898926 657.008606,747.208862 657.042236,860.518738 
	C657.044128,866.910400 655.187622,871.869080 650.483704,876.461365 
	C629.023682,897.412109 607.946777,918.755493 586.470642,939.689514 
	C584.112122,941.988403 580.137695,943.547180 576.807495,943.753723 
	C568.010925,944.299316 559.139465,944.212585 550.336060,943.708801 
	C547.805603,943.563965 545.405396,941.145264 543.233765,939.204285 
	C544.011169,936.639648 544.923218,934.640686 544.927063,932.640015 
	C545.006897,891.322510 544.981750,850.004700 544.980835,808.687012 
	C544.978027,683.234436 544.985901,557.781860 544.935364,432.329285 
	C544.933655,428.045105 544.057190,423.758148 544.102295,419.477875 
	C544.188660,411.273254 545.184265,403.042999 544.737915,394.881622 
	C544.484192,390.242981 545.597473,386.929779 548.593140,383.738068 
	C550.243408,381.979828 551.516235,379.867371 552.959290,377.914612 
z"/>
<path fill="#FCFCFC" opacity="1.000000" stroke="none" 
	d="
M109.127167,467.999939 
	C109.119347,455.333832 109.170341,443.167267 109.078033,431.001801 
	C109.035255,425.363464 110.876266,420.886505 115.022156,416.805542 
	C145.901764,386.409668 176.646942,355.876617 207.314850,325.266937 
	C211.383499,321.206024 215.896301,319.306366 221.557266,319.309570 
	C316.053253,319.363037 410.549225,319.362518 505.045227,319.391663 
	C512.290588,319.393890 514.650269,322.089844 515.133179,329.346863 
	C515.564697,335.831787 513.461548,340.661194 508.781616,345.293213 
	C484.264893,369.558807 459.984741,394.064697 435.761322,418.624084 
	C431.590454,422.852844 426.934357,424.705292 421.087738,424.699707 
	C350.591125,424.632324 280.094391,424.648132 209.597717,424.642303 
	C206.958069,424.642090 204.318405,424.642334 201.156250,424.642334 
	C201.156250,427.042023 201.156509,428.994873 201.156219,430.947723 
	C201.149216,477.779144 201.069748,524.610779 201.221756,571.441650 
	C201.241989,577.677673 199.483871,582.378906 195.011459,586.938171 
	C167.005386,615.488159 139.283051,644.316406 111.460983,673.046875 
	C110.944702,673.580078 110.356995,674.044006 109.127357,675.144653 
	C109.127357,605.671143 109.127357,537.085571 109.127167,467.999939 
z"/>
<path fill="#7DC494" opacity="1.000000" stroke="none" 
	d="
M472.104736,605.257385 
	C470.320984,607.104431 468.537292,608.951538 466.029419,610.914490 
	C461.002777,610.304199 460.678986,612.903503 461.068604,616.099121 
	C461.068604,616.099121 461.013885,616.012268 460.648865,616.021240 
	C457.008575,615.627808 456.842041,617.713501 457.036133,620.087891 
	C456.997437,620.431763 456.833252,620.698303 455.991211,620.807251 
	C453.528229,620.228760 451.617523,619.730530 448.978088,619.042236 
	C449.976868,622.465881 450.503021,624.269531 451.029205,626.073181 
	C449.254761,627.973694 447.480286,629.874146 445.008057,631.897583 
	C442.413269,633.207214 440.358093,634.203918 438.654022,635.622375 
	C435.609985,638.156128 432.875275,643.067688 429.837769,643.207275 
	C422.311493,643.552917 426.148163,647.427246 426.501801,650.418457 
	C426.501801,650.418457 426.417480,650.399109 425.946350,650.292603 
	C414.348602,649.831604 416.032684,649.069458 414.414062,658.620972 
	C409.396912,658.381409 408.367249,661.027222 409.957855,665.383972 
	C410.115479,665.815613 409.954834,666.363464 409.941895,666.857422 
	C409.941895,666.857422 409.951996,666.952026 409.537170,666.969360 
	C408.193542,668.102539 407.264740,669.218384 406.335938,670.334229 
	C406.335968,670.334229 405.976227,670.087830 405.767395,670.089783 
	C399.760651,668.026855 402.725800,672.616394 402.180481,674.540222 
	C401.780121,675.024048 401.379761,675.507874 400.338043,676.038574 
	C396.090240,675.316284 391.911560,673.329163 392.150330,680.000061 
	C380.998779,680.000061 370.273987,680.000061 359.549225,680.000061 
	C312.490295,680.000000 265.431305,679.964417 218.372513,680.045776 
	C212.595154,680.055786 206.814148,680.633484 201.048080,681.108948 
	C200.328476,681.168274 199.690628,682.219177 198.639465,682.884033 
	C197.507370,682.885315 196.750671,682.813232 195.993210,682.369263 
	C195.055573,680.398621 194.363663,677.658936 193.140015,677.396240 
	C187.438248,676.172241 182.963547,673.231873 178.585968,669.564209 
	C176.422226,667.751404 173.330734,667.098206 172.671143,671.890869 
	C172.517380,673.007996 170.088654,674.680786 168.765686,674.627686 
	C160.002518,674.276001 160.007751,674.145569 159.828812,682.524902 
	C159.648727,682.626526 159.250885,682.513672 159.037872,682.165771 
	C155.071808,680.149902 151.393509,679.435364 147.673096,682.744141 
	C146.848724,682.760071 146.375854,682.696899 145.785126,682.386963 
	C146.517944,678.456970 148.946030,676.999023 152.771133,677.467957 
	C153.181580,675.054260 153.560532,672.825867 153.939499,670.597473 
	C170.592499,653.592712 187.216003,636.558899 203.909958,619.594421 
	C213.371017,609.980042 222.848267,600.376404 232.553543,591.011780 
	C234.571915,589.064270 237.627701,588.191833 240.842850,587.174927 
	C243.320618,587.684998 245.160919,587.844116 246.995117,588.375000 
	C246.138290,590.952148 245.287567,593.157654 244.137970,596.137939 
	C245.495544,595.398254 246.266754,595.166870 246.779541,594.669189 
	C251.605377,589.985779 257.225586,588.812256 263.982422,588.842285 
	C324.713745,589.112244 385.446777,589.010071 446.179260,588.969604 
	C449.086151,588.967712 451.681702,588.992615 453.539764,591.847778 
	C454.203888,592.868286 455.881897,593.229065 457.575928,594.151733 
	C457.575928,592.036316 457.575928,590.688965 457.575928,588.854248 
	C462.416077,589.753540 467.091980,587.304443 471.092682,592.280151 
	C474.755524,596.835754 473.098419,600.849731 472.104736,605.257385 
z"/>
<path fill="#FCFCFC" opacity="1.000000" stroke="none" 
	d="
M145.902985,682.633728 
	C146.375854,682.696899 146.848724,682.760071 148.113846,682.841431 
	C152.354355,682.744385 155.802628,682.629028 159.250885,682.513672 
	C159.250885,682.513672 159.648727,682.626526 160.233856,682.586609 
	C172.543991,682.611511 184.268982,682.676392 195.993988,682.741211 
	C196.750671,682.813232 197.507370,682.885315 199.000519,682.957764 
	C200.226700,682.995789 200.716431,683.033447 201.206146,683.071045 
	C201.181870,742.698853 201.069870,802.326843 201.246262,861.954102 
	C201.267899,869.263123 199.361511,874.716370 194.010468,880.045410 
	C173.601181,900.370422 153.523758,921.040283 133.751678,941.986450 
	C127.756737,948.337524 120.862167,947.442810 113.932114,946.507690 
	C109.641212,945.928650 109.042801,941.682556 109.055199,937.766846 
	C109.106308,921.610779 109.105827,905.454590 109.106453,889.298401 
	C109.109070,822.341736 109.105194,755.385071 109.103722,688.428406 
	C109.103683,686.805542 109.103722,685.182617 109.103722,682.892395 
	C120.007523,682.892395 130.446030,682.892395 141.747528,682.829834 
	C143.707993,682.722717 144.805496,682.678223 145.902985,682.633728 
z"/>
<path fill="#7DC495" opacity="1.000000" stroke="none" 
	d="
M1074.631836,519.658203 
	C1083.265381,505.850189 1091.823242,491.994080 1100.551147,478.245880 
	C1112.409424,459.566620 1124.394043,440.967438 1136.336426,422.341553 
	C1137.491943,420.539337 1138.730225,418.790192 1140.620239,415.996307 
	C1162.409912,450.721283 1183.825195,484.849670 1204.826172,519.415405 
	C1161.809692,519.885132 1119.207520,519.918884 1076.605347,519.937927 
	C1075.947510,519.938232 1075.289551,519.755554 1074.631836,519.658203 
z"/>
<path fill="#6CAC80" opacity="1.000000" stroke="none" 
	d="
M552.643677,378.027557 
	C551.516235,379.867371 550.243408,381.979828 548.593140,383.738068 
	C545.597473,386.929779 544.484192,390.242981 544.737915,394.881622 
	C545.184265,403.042999 544.188660,411.273254 544.102295,419.477875 
	C544.057190,423.758148 544.933655,428.045105 544.935364,432.329285 
	C544.985901,557.781860 544.978027,683.234436 544.980835,808.687012 
	C544.981750,850.004700 545.006897,891.322510 544.927063,932.640015 
	C544.923218,934.640686 544.011169,936.639648 543.171631,938.845581 
	C542.578796,937.610718 542.124023,936.169739 542.124207,934.728699 
	C542.147766,756.661499 542.265259,578.594177 542.093628,400.527191 
	C542.084473,390.969604 544.665039,383.665649 552.643677,378.027557 
z"/>
<path fill="#7ABE92" opacity="1.000000" stroke="none" 
	d="
M201.661285,683.100708 
	C200.716431,683.033447 200.226700,682.995789 199.375946,682.884399 
	C199.690628,682.219177 200.328476,681.168274 201.048080,681.108948 
	C206.814148,680.633484 212.595154,680.055786 218.372513,680.045776 
	C265.431305,679.964417 312.490295,680.000000 359.549225,680.000061 
	C370.273987,680.000061 380.998779,680.000061 392.150330,680.000061 
	C391.911560,673.329163 396.090240,675.316284 400.118622,676.132935 
	C397.017639,681.331299 392.083893,683.057373 385.940491,683.051880 
	C324.665894,682.996887 263.391144,683.083679 201.661285,683.100708 
z"/>
<path fill="#7ABE92" opacity="1.000000" stroke="none" 
	d="
M472.437683,605.113831 
	C473.098419,600.849731 474.755524,596.835754 471.092682,592.280151 
	C467.091980,587.304443 462.416077,589.753540 457.575928,588.854248 
	C457.575928,590.688965 457.575928,592.036316 457.575928,594.151733 
	C455.881897,593.229065 454.203888,592.868286 453.539764,591.847778 
	C451.681702,588.992615 449.086151,588.967712 446.179260,588.969604 
	C385.446777,589.010071 324.713745,589.112244 263.982422,588.842285 
	C257.225586,588.812256 251.605377,589.985779 246.779541,594.669189 
	C246.266754,595.166870 245.495544,595.398254 244.137970,596.137939 
	C245.287567,593.157654 246.138290,590.952148 247.463623,588.371704 
	C319.896973,587.995605 391.855713,588.002686 463.814423,587.951477 
	C465.876984,587.950012 467.939117,587.330322 470.001434,586.998962 
	C476.480377,589.218079 477.865265,598.205444 472.437683,605.113831 
z"/>
<path fill="#8FDDA8" opacity="1.000000" stroke="none" 
	d="
M1074.631226,519.675171 
	C1075.289551,519.755554 1075.947510,519.938232 1076.605347,519.937927 
	C1119.207520,519.918884 1161.809692,519.885132 1204.901001,519.758301 
	C1205.390137,519.663879 1205.416626,519.688110 1205.239502,519.928101 
	C1204.408325,520.574951 1203.754395,520.981812 1203.100342,521.388672 
	C1200.778320,521.496521 1198.456177,521.700684 1196.134277,521.697937 
	C1155.999023,521.650269 1115.863892,521.577087 1075.281494,520.988892 
	C1074.757324,520.215637 1074.680420,519.963074 1074.603394,519.710449 
	C1074.603394,519.710449 1074.630737,519.692139 1074.631226,519.675171 
z"/>
<path fill="#8AD9A4" opacity="1.000000" stroke="none" 
	d="
M469.551331,586.854736 
	C467.939117,587.330322 465.876984,587.950012 463.814423,587.951477 
	C391.855713,588.002686 319.896973,587.995605 247.469727,588.000061 
	C245.160919,587.844116 243.320618,587.684998 241.225632,587.230835 
	C246.785141,586.839844 252.599335,586.660645 258.413544,586.660767 
	C328.642761,586.661926 398.871979,586.689636 469.551331,586.854736 
z"/>
<path fill="#7ABE92" opacity="1.000000" stroke="none" 
	d="
M410.236389,666.708496 
	C409.954834,666.363464 410.115479,665.815613 409.957855,665.383972 
	C408.367249,661.027222 409.396912,658.381409 414.414062,658.620972 
	C416.032684,649.069458 414.348602,649.831604 425.947723,650.335815 
	C421.123779,655.843567 415.827332,661.201599 410.236389,666.708496 
z"/>
<path fill="#7ABE92" opacity="1.000000" stroke="none" 
	d="
M426.791748,650.279358 
	C426.148163,647.427246 422.311493,643.552917 429.837769,643.207275 
	C432.875275,643.067688 435.609985,638.156128 438.654022,635.622375 
	C440.358093,634.203918 442.413269,633.207214 444.711670,632.032288 
	C439.102631,638.076172 433.092163,644.108215 426.791748,650.279358 
z"/>
<path fill="#7ABE92" opacity="1.000000" stroke="none" 
	d="
M145.785126,682.386963 
	C144.805496,682.678223 143.707993,682.722717 142.195923,682.748047 
	C145.625107,678.788147 149.468903,674.847412 153.626083,670.752075 
	C153.560532,672.825867 153.181580,675.054260 152.771133,677.467957 
	C148.946030,676.999023 146.517944,678.456970 145.785126,682.386963 
z"/>
<path fill="#7ABE92" opacity="1.000000" stroke="none" 
	d="
M451.330688,625.943665 
	C450.503021,624.269531 449.976868,622.465881 448.978088,619.042236 
	C451.617523,619.730530 453.528229,620.228760 455.763184,620.885864 
	C454.602356,622.634460 453.117279,624.224304 451.330688,625.943665 
z"/>
<path fill="#7ABE92" opacity="1.000000" stroke="none" 
	d="
M461.372925,615.974976 
	C460.678986,612.903503 461.002777,610.304199 465.736115,611.048828 
	C464.670380,612.661804 463.173798,614.256287 461.372925,615.974976 
z"/>
<path fill="#7ABE92" opacity="1.000000" stroke="none" 
	d="
M402.476562,674.374817 
	C402.725800,672.616394 399.760651,668.026855 405.943237,670.220093 
	C405.142822,671.635437 403.957733,672.922424 402.476562,674.374817 
z"/>
<path fill="#7ABE92" opacity="1.000000" stroke="none" 
	d="
M457.332458,619.960327 
	C456.842041,617.713501 457.008575,615.627808 460.691589,616.049683 
	C459.942535,617.323730 458.785675,618.578308 457.332458,619.960327 
z"/>
<path fill="#7ABE92" opacity="1.000000" stroke="none" 
	d="
M406.619751,670.212280 
	C407.264740,669.218384 408.193542,668.102539 409.489868,666.964233 
	C408.872803,667.991333 407.888153,669.040833 406.619751,670.212280 
z"/>
<path fill="#7DC495" opacity="1.000000" stroke="none" 
	d="
M1203.385010,521.532227 
	C1203.754395,520.981812 1204.408325,520.574951 1205.251953,519.941040 
	C1205.710938,520.205505 1205.980225,520.697021 1206.249512,521.188538 
	C1205.389526,521.350891 1204.529541,521.513306 1203.385010,521.532227 
z"/>
<path fill="#7DC495" opacity="1.000000" stroke="none" 
	d="
M1074.346924,519.899170 
	C1074.680420,519.963074 1074.757324,520.215637 1074.887329,520.860962 
	C1074.656982,520.865112 1074.373657,520.476501 1074.346924,519.899170 
z"/>
<path fill="#7ABE92" opacity="1.000000" stroke="none" 
	d="
M195.993210,682.369263 
	C184.268982,682.676392 172.543991,682.611511 160.413940,682.484985 
	C160.007751,674.145569 160.002518,674.276001 168.765686,674.627686 
	C170.088654,674.680786 172.517380,673.007996 172.671143,671.890869 
	C173.330734,667.098206 176.422226,667.751404 178.585968,669.564209 
	C182.963547,673.231873 187.438248,676.172241 193.140015,677.396240 
	C194.363663,677.658936 195.055573,680.398621 195.993210,682.369263 
z"/>
<path fill="#7ABE92" opacity="1.000000" stroke="none" 
	d="
M159.037872,682.165771 
	C155.802628,682.629028 152.354355,682.744385 148.465332,682.762329 
	C151.393509,679.435364 155.071808,680.149902 159.037872,682.165771 
z"/>
</svg>